<svg width="44" height="44" viewBox="0 0 44 44" fill="none" xmlns="http://www.w3.org/2000/svg">
<path d="M23.3894 8.86937H20.4418L11.0788 30.5429H15.4135L16.9957 26.2082H26.8355L28.4177 30.5429H32.7524L23.3894 8.86937ZM18.2311 22.9572L21.9156 13.2041L25.6001 22.9572H18.2311ZM33.6193 40.0793L37.0871 43.547H26.2503V32.7103L30.585 37.045C35.765 34.0323 39.2544 28.2672 39.2544 21.8735C39.2544 12.3155 31.4736 4.53466 21.9156 4.53466C12.3576 4.53466 4.57677 12.3155 4.57677 21.8735C4.57677 28.2672 8.06621 33.859 13.2462 36.8716V41.7265C5.59543 38.3671 0.242065 30.7596 0.242065 21.8735C0.242065 9.95304 9.99516 0.199951 21.9156 0.199951C33.8361 0.199951 43.5891 9.95304 43.5891 21.8735C43.5891 29.5243 39.6229 36.2214 33.6193 40.0793Z" fill="#22C68A"/>
</svg>
