<svg width="52" height="50" viewBox="0 0 52 50" fill="none" xmlns="http://www.w3.org/2000/svg">
<path d="M11.5934 49.8422H0.91107V16.5651H11.5934V49.8422ZM6.2269 12.0236C4.99937 12.0268 3.79831 11.6777 2.77558 11.0206C1.75285 10.3634 0.954331 9.42752 0.480735 8.3312C0.00713924 7.23489 -0.120111 6.02731 0.114879 4.86097C0.349869 3.69463 0.936531 2.62184 1.80099 1.77816C2.66545 0.934484 3.76886 0.357719 4.97174 0.120749C6.17463 -0.116221 7.42312 -0.00277608 8.55944 0.446748C9.69576 0.896272 10.6689 1.66171 11.3561 2.64638C12.0433 3.63105 12.4136 4.79081 12.4203 5.97911C12.427 6.77056 12.2716 7.55546 11.9634 8.28852C11.6551 9.02159 11.2 9.68832 10.6242 10.2503C10.0484 10.8122 9.3634 11.2582 8.60868 11.5625C7.85395 11.8669 7.0445 12.0236 6.2269 12.0236ZM51.5377 49.8422H40.8893V33.6529C40.8893 29.7812 40.8892 24.8313 35.3372 24.8313C29.7851 24.8313 28.9413 29.0297 28.9413 33.3751V49.8422H18.2761V16.5651H28.5194V21.1066H28.6545C29.6807 19.4066 31.1648 18.0085 32.9482 17.0618C34.7317 16.1151 36.7474 15.6554 38.7799 15.7319C49.5802 15.7319 51.5714 22.6095 51.5714 31.5618V49.8422H51.5377Z" fill="#BEE3D3"/>
</svg>
