<svg width="52" height="52" viewBox="0 0 52 52" fill="none" xmlns="http://www.w3.org/2000/svg">
<path d="M25.6554 14.0161C27.0729 14.0161 28.4324 14.5759 29.4348 15.5723C30.4372 16.5687 31.0003 17.9202 31.0003 19.3294C31.0003 20.0271 30.862 20.718 30.5934 21.3627C30.3248 22.0073 29.9311 22.5931 29.4348 23.0864C28.9385 23.5798 28.3492 23.9712 27.7008 24.2382C27.0523 24.5052 26.3573 24.6427 25.6554 24.6427C24.2378 24.6427 22.8783 24.0829 21.8759 23.0864C20.8736 22.09 20.3104 20.7385 20.3104 19.3294C20.3104 17.9202 20.8736 16.5687 21.8759 15.5723C22.8783 14.5759 24.2378 14.0161 25.6554 14.0161ZM25.6554 4.45215C29.6245 4.45215 33.4311 6.01957 36.2378 8.80959C39.0444 11.5996 40.6211 15.3837 40.6211 19.3294C40.6211 30.4873 25.6554 46.9585 25.6554 46.9585C25.6554 46.9585 10.6896 30.4873 10.6896 19.3294C10.6896 15.3837 12.2663 11.5996 15.073 8.80959C17.8796 6.01957 21.6862 4.45215 25.6554 4.45215ZM25.6554 8.70278C22.8202 8.70278 20.1012 9.82237 18.0965 11.8152C16.0918 13.8081 14.9655 16.511 14.9655 19.3294C14.9655 21.4547 14.9655 25.7053 25.6554 39.9662C36.3452 25.7053 36.3452 21.4547 36.3452 19.3294C36.3452 16.511 35.219 13.8081 33.2142 11.8152C31.2095 9.82237 28.4905 8.70278 25.6554 8.70278Z" fill="white"/>
</svg>
