<svg width="27" height="27" viewBox="0 0 27 27" fill="none" xmlns="http://www.w3.org/2000/svg">
<path d="M6.0321 11.6578C8.13016 15.7566 11.5104 19.1168 15.6336 21.2025L18.839 18.0161C19.247 17.6105 19.8152 17.4947 20.3251 17.654C21.957 18.1899 23.7053 18.4796 25.5266 18.4796C25.913 18.4796 26.2836 18.6322 26.5568 18.9038C26.8301 19.1754 26.9836 19.5438 26.9836 19.9279V24.9972C26.9836 25.3813 26.8301 25.7497 26.5568 26.0214C26.2836 26.293 25.913 26.4456 25.5266 26.4456C18.9575 26.4456 12.6575 23.8514 8.01241 19.2339C3.36737 14.6163 0.757813 8.35358 0.757812 1.82336C0.757812 1.43923 0.911316 1.07084 1.18455 0.799216C1.45779 0.527595 1.82838 0.375 2.2148 0.375H7.31425C7.70067 0.375 8.07126 0.527595 8.34449 0.799216C8.61773 1.07084 8.77123 1.43923 8.77123 1.82336C8.77123 3.63382 9.06263 5.37186 9.60172 6.99403C9.76198 7.50095 9.64543 8.06582 9.23747 8.47136L6.0321 11.6578Z" fill="white"/>
</svg>
