<svg width="182" height="167" viewBox="0 0 182 167" fill="none" xmlns="http://www.w3.org/2000/svg">
<path d="M67.8256 43.2491C69.5233 39.176 67.5709 34.5088 63.4963 32.8117C59.4216 31.1145 54.7528 33.0662 53.055 37.1394L32.7951 85.9892C31.0973 90.0623 33.0497 94.7295 37.1244 96.4267C41.199 98.1238 45.8678 96.1721 47.5656 92.0989L67.8256 43.2491Z" fill="#F6F8F1"/>
<path d="M93.9145 43.2491C92.2167 39.176 94.1692 34.5088 98.2438 32.8117C102.318 31.1145 106.987 33.0662 108.685 37.1394L128.917 85.9892C130.614 90.0623 128.662 94.7295 124.587 96.4267C120.513 98.1238 115.844 96.1721 114.146 92.0989L93.9145 43.2491Z" fill="#F6F8F1"/>
<path d="M134.406 37.1394C136.104 33.0662 140.773 31.1428 144.847 32.8116C148.922 34.5088 150.846 39.176 149.177 43.2491L142.386 59.6267C140.688 63.6999 136.019 65.6233 131.944 63.9544C127.87 62.2573 125.946 57.5901 127.615 53.5169L134.406 37.1394Z" fill="#F6F8F1"/>
<path d="M81.2662 69.6116C79.5684 65.5384 74.8996 63.615 70.8249 65.2839C66.7503 66.981 64.8262 71.6482 66.4956 75.7214L73.2867 92.0989C74.9844 96.1721 79.6533 98.0955 83.7279 96.4267C87.8025 94.7295 89.7267 90.0623 88.0572 85.9892L81.2662 69.6116Z" fill="#F6F8F1"/>
<path d="M32.2009 124.43C32.2009 121.205 34.5494 118.546 37.662 118.546C39.3032 118.546 40.6614 119.395 41.2839 120.3V118.773H43.7739V130.087H41.2839V128.559C40.6614 129.465 39.3032 130.313 37.662 130.313C34.5494 130.313 32.2009 127.683 32.2009 124.43ZM41.482 124.43C41.482 122.393 40.0955 120.809 38.1147 120.809C36.134 120.809 34.7475 122.393 34.7475 124.43C34.7475 126.466 36.134 128.05 38.1147 128.05C40.0955 128.05 41.482 126.466 41.482 124.43Z" fill="#F6F8F1"/>
<path d="M45.6415 127.909L47.4807 126.608C47.9335 127.598 49.037 128.163 50.1971 128.163C51.0743 128.163 51.8383 127.767 51.8383 126.975C51.8383 126.325 51.4422 125.957 50.084 125.533L49.0936 125.25C47.1129 124.713 46.0942 123.496 46.1225 121.799C46.1225 119.819 47.9052 118.575 50.1688 118.575C51.8949 118.575 53.1965 119.225 53.9888 120.498L52.2627 121.799C51.7534 121.092 51.046 120.639 50.1123 120.639C49.3766 120.639 48.5843 121.007 48.5843 121.714C48.5843 122.252 48.8389 122.704 49.9425 123.044L51.1026 123.383C53.0833 124.005 54.2718 124.939 54.2718 126.834C54.2718 129.012 52.5174 130.341 50.1688 130.341C48.1598 130.313 46.4338 129.549 45.6415 127.909Z" fill="#F6F8F1"/>
<path d="M56.3374 134.811V118.773H58.8274V120.3C59.4499 119.395 60.8364 118.546 62.4776 118.546C65.5902 118.546 67.9387 121.205 67.9387 124.43C67.9387 127.654 65.5902 130.313 62.4776 130.313C60.8364 130.313 59.4782 129.465 58.8274 128.559V134.811H56.3374ZM65.3921 124.43C65.3921 122.393 64.0056 120.809 62.0249 120.809C60.0159 120.809 58.6293 122.393 58.6293 124.43C58.6293 126.466 60.0159 128.05 62.0249 128.05C64.0056 128.05 65.3921 126.466 65.3921 124.43Z" fill="#F6F8F1"/>
<path d="M70.0043 113.144H72.4944V130.115H70.0043V113.144Z" fill="#F6F8F1"/>
<path d="M74.56 124.43C74.56 121.205 76.9086 118.546 80.0211 118.546C81.6623 118.546 83.0205 119.395 83.643 120.3V118.773H86.1331V130.087H83.643V128.559C83.0205 129.465 81.6623 130.313 80.0211 130.313C76.9086 130.313 74.56 127.683 74.56 124.43ZM83.8411 124.43C83.8411 122.393 82.4546 120.809 80.4739 120.809C78.4931 120.809 77.1066 122.393 77.1066 124.43C77.1066 126.466 78.4931 128.05 80.4739 128.05C82.4546 128.05 83.8411 126.466 83.8411 124.43Z" fill="#F6F8F1"/>
<path d="M88.9061 118.773H91.3961V120.3C92.1035 119.14 93.3769 118.546 94.8483 118.546C97.4798 118.546 99.1775 120.413 99.1775 123.27V130.087H96.6875V123.694C96.6875 121.884 95.782 120.809 94.3389 120.809C92.6978 120.809 91.4244 122.082 91.4244 124.515V130.087H88.9344V118.773H88.9061Z" fill="#F6F8F1"/>
<path d="M106.082 118.773H108.855L112.307 126.721L115.759 118.773H118.532L113.41 130.087H111.203L106.082 118.773Z" fill="#F6F8F1"/>
<path d="M119.409 114.643C119.409 113.738 120.173 113.002 121.079 113.002C122.012 113.002 122.72 113.738 122.72 114.643C122.72 115.576 121.984 116.312 121.079 116.312C120.201 116.312 119.409 115.576 119.409 114.643ZM119.862 118.773H122.352V130.087H119.862V118.773Z" fill="#F6F8F1"/>
<path d="M124.361 124.43C124.361 121.205 126.71 118.546 129.822 118.546C131.463 118.546 132.822 119.395 133.444 120.3V118.773H135.934V130.087H133.444V128.559C132.822 129.465 131.463 130.313 129.822 130.313C126.71 130.313 124.361 127.683 124.361 124.43ZM133.614 124.43C133.614 122.393 132.227 120.809 130.247 120.809C128.266 120.809 126.879 122.393 126.879 124.43C126.879 126.466 128.266 128.05 130.247 128.05C132.256 128.05 133.614 126.466 133.614 124.43Z" fill="#F6F8F1"/>
<path d="M141.197 124.628V130.087H138.707V113.115H141.197V123.072L145.526 118.773H148.667L143.631 123.807L149.799 130.059H146.602L141.197 124.628Z" fill="#F6F8F1"/>
</svg>
