<svg width="288" height="74" viewBox="0 0 288 74" fill="none" xmlns="http://www.w3.org/2000/svg">
<path d="M131.105 65.6608H123.39V70.1725H132V74H119V54H131.556V57.8275H123.405V61.8333H131.12L131.105 65.6608Z" fill="white"/>
<path d="M148 54V74H143V54H148Z" fill="white"/>
<path d="M170.109 65.6608H162.394V70.1725H171V74H158V54H170.576V57.8275H162.409V61.8333H170.124L170.109 65.6608Z" fill="white"/>
<path d="M181 74V54H186.776L191.264 61.1506C192.655 63.4571 193.869 65.867 194.895 68.3592H194.986C194.706 65.6784 194.587 62.983 194.631 60.2878V54H199V74H193.897L189.235 66.2563C187.793 63.857 186.483 61.3799 185.311 58.8362L185.192 58.8652C185.34 61.7146 185.369 64.4728 185.369 67.4716V74H181Z" fill="white"/>
<path d="M209 54.4348C211.193 54.1401 213.404 53.9949 215.617 54.0001C219.745 54.0001 222.371 54.7273 224.449 56.2102C226.527 57.693 228 60.0777 228 63.4172C228 67.106 226.527 69.637 224.595 71.2335C222.315 73.1226 218.764 73.9961 214.608 73.9961C212.736 74.0225 210.865 73.9152 209.008 73.6751L209 54.4348ZM213.6 70.3317C214.203 70.4102 214.811 70.4401 215.419 70.421C220.124 70.4779 223.086 68.0972 223.086 63.6487C223.086 59.5496 220.285 57.5183 216.013 57.5183C215.201 57.5057 214.39 57.5737 213.592 57.7215L213.6 70.3317Z" fill="white"/>
<path d="M257 63.8558C257 69.863 252.888 74 246.777 74C240.778 74 237 69.7589 237 64.2002C237 58.2411 241.112 54 247.095 54C253.249 54 257 58.2091 257 63.8558ZM241.694 64.0561C241.694 67.6364 243.748 70.4638 247.002 70.4638C250.256 70.4638 252.306 67.7125 252.306 64.016C252.306 60.4918 250.333 57.5683 247.002 57.5683C243.671 57.5683 241.694 60.4437 241.694 64.0561Z" fill="white"/>
<path d="M282.99 66.146C282.902 63.5335 282.81 60.5685 282.81 57.3631H282.718C281.97 60.0626 281.045 63.0276 280.146 65.6566L277.424 73.6683H273.66L271.297 65.6898C270.578 63.1105 269.863 60.1414 269.294 57.3548H269.236C269.114 60.2575 269.027 63.5252 268.905 66.1957L268.516 74H264L265.225 54.0042H271.958L274.049 60.5022C274.71 62.7 275.366 65.3373 275.843 67.7093H275.944C276.571 65.3373 277.319 62.5756 278.068 60.469L280.401 54H286.955L288 73.9958H283.274L282.99 66.146Z" fill="white"/>
<path d="M288 33.9838L279.575 19.2775C283.698 17.5 284.809 14.1514 284.809 10.078C284.809 5.68884 282.223 1 274.186 1H260V34H268.098V20.3546H272.552L279.203 33.9919L288 33.9838ZM268.098 7.28417H273.455C274.361 7.28525 275.23 7.64278 275.87 8.27824C276.511 8.9137 276.87 9.77511 276.87 10.6733C276.87 11.1183 276.782 11.559 276.61 11.9702C276.438 12.3814 276.186 12.755 275.869 13.0697C275.551 13.3844 275.174 13.634 274.759 13.8044C274.344 13.9747 273.9 14.0623 273.45 14.0623H268.098V7.28417Z" fill="white"/>
<path d="M196.591 33.9959L178.024 13.0622V33.9959H170V1H176.478L192.976 19.6258V1H201V34L196.591 33.9959Z" fill="white"/>
<path d="M99.4531 33.9959L80.2831 13.0622V33.9959H72V1H78.6867L95.7169 19.6258V1H104V34L99.4531 33.9959Z" fill="white"/>
<path d="M25 24.8528C25 18.1638 19.9387 16.3499 19.9387 16.3499C19.9387 16.3499 22.9003 14.6331 22.9003 10.2763C22.9003 5.32841 20.143 1 12.1242 1H0V33.9996H15.3513C20.4575 34.0441 25 30.4891 25 24.8528ZM8.09641 7.19907H11.5972C12.5387 7.19907 13.4416 7.56977 14.1073 8.22964C14.7731 8.88951 15.1471 9.78448 15.1471 10.7177C15.1471 11.6509 14.7731 12.5458 14.1073 13.2057C13.4416 13.8656 12.5387 14.2363 11.5972 14.2363H8.09641V7.19907ZM16.6748 24.1443C16.6748 25.1387 16.2763 26.0923 15.5669 26.7955C14.8575 27.4986 13.8954 27.8937 12.8922 27.8937H8.09641V20.3989H12.9003C13.9036 20.3989 14.8657 20.7939 15.5751 21.4971C16.2845 22.2002 16.683 23.1539 16.683 24.1483L16.6748 24.1443Z" fill="white"/>
<path d="M119 34V1H138.635V7.51577H126.957V13.6914H136.459V20.2071H126.957V27.4964H139V34H119Z" fill="white"/>
<path d="M230.5 0C227.039 0 223.655 1.02636 220.778 2.94928C217.9 4.87221 215.657 7.60533 214.332 10.803C213.008 14.0007 212.661 17.5194 213.336 20.9141C214.012 24.3087 215.678 27.4269 218.126 29.8744C220.573 32.3218 223.691 33.9885 227.086 34.6637C230.481 35.339 233.999 34.9924 237.197 33.6679C240.395 32.3434 243.128 30.1003 245.051 27.2225C246.974 24.3446 248 20.9612 248 17.5C248 12.8587 246.156 8.40752 242.874 5.12563C239.592 1.84375 235.141 0 230.5 0ZM230.5 27.4195C228.539 27.4163 226.622 26.8317 224.993 25.7396C223.364 24.6475 222.095 23.0969 221.347 21.2839C220.599 19.4708 220.405 17.4766 220.79 15.5534C221.175 13.6301 222.121 11.8642 223.509 10.4787C224.898 9.09322 226.665 8.15041 228.589 7.76943C230.513 7.38846 232.507 7.58642 234.319 8.3383C236.13 9.09018 237.678 10.3622 238.767 11.9937C239.856 13.6251 240.437 15.5427 240.436 17.5041C240.436 18.8081 240.179 20.0993 239.679 21.3038C239.18 22.5084 238.447 23.6026 237.525 24.5239C236.602 25.4453 235.506 26.1756 234.301 26.6731C233.096 27.1707 231.804 27.4257 230.5 27.4236V27.4195Z" fill="white"/>
<path d="M40 20V14.0552C40 12.4493 40.6848 10.9091 41.9038 9.77354C43.1228 8.63796 44.7761 8 46.5 8C48.2239 8 49.8772 8.63796 51.0962 9.77354C52.3152 10.9091 53 12.4493 53 14.0552V20H40Z" fill="white"/>
<path d="M38.2917 26L22 48H32.5892L45 26H38.2917Z" fill="white"/>
<path d="M56.4167 26H50L61.8712 48H72L56.4167 26Z" fill="white"/>
</svg>
