<?xml version="1.0" standalone="no"?>
<!DOCTYPE svg PUBLIC "-//W3C//DTD SVG 20010904//EN"
 "http://www.w3.org/TR/2001/REC-SVG-20010904/DTD/svg10.dtd">
<svg version="1.0" xmlns="http://www.w3.org/2000/svg"
 width="1227.000000pt" height="417.000000pt" viewBox="0 0 1227.000000 417.000000"
 preserveAspectRatio="xMidYMid meet">

<g transform="translate(0.000000,417.000000) scale(0.100000,-0.100000)"
fill="#ffff" stroke="none">
<path d="M861 3785 c-159 -30 -315 -143 -388 -280 -60 -115 -78 -200 -78 -380
0 -248 40 -361 175 -497 87 -88 162 -129 276 -153 236 -50 463 29 577 202 46
70 95 188 83 200 -12 12 -239 82 -248 77 -4 -3 -8 -13 -8 -22 0 -9 -13 -44
-29 -77 -34 -74 -103 -137 -166 -155 -63 -18 -161 -9 -215 19 -117 60 -165
158 -177 363 -14 240 44 388 180 460 35 19 58 23 132 23 81 0 95 -3 143 -30
56 -30 105 -89 118 -139 3 -15 12 -30 19 -33 7 -2 66 9 132 24 136 34 134 30
84 137 -80 166 -236 261 -446 271 -54 3 -119 -1 -164 -10z"/>
<path d="M5170 3790 c-220 -35 -352 -168 -352 -355 -1 -143 73 -254 214 -320
40 -19 147 -54 238 -78 239 -64 280 -89 280 -175 0 -112 -86 -174 -242 -175
-78 0 -94 3 -145 29 -47 24 -65 40 -91 84 -18 30 -35 72 -39 94 l-6 38 -51 -5
c-28 -4 -86 -9 -128 -13 -92 -8 -92 -8 -53 -131 68 -215 237 -322 507 -323
187 0 329 49 417 145 71 79 95 146 95 265 0 83 -3 103 -28 158 -59 128 -158
188 -422 258 -76 20 -162 45 -191 56 -63 23 -103 67 -103 112 0 77 81 121 220
121 131 -1 192 -42 221 -149 l10 -39 61 7 c34 3 92 6 131 6 l70 0 -7 57 c-18
157 -126 273 -297 319 -68 18 -237 26 -309 14z"/>
<path d="M1735 3768 c-3 -7 -4 -299 -3 -648 l3 -635 133 -3 132 -3 0 286 0
285 250 0 250 0 2 -282 3 -283 133 -3 132 -3 -2 648 -3 648 -130 0 -130 0 -3
-252 -2 -253 -250 0 -250 0 -2 253 -3 252 -128 3 c-96 2 -129 -1 -132 -10z"/>
<path d="M3035 3769 c-3 -8 -4 -300 -3 -649 l3 -635 133 -3 132 -3 0 272 0
272 83 -5 c142 -7 158 -23 382 -360 l118 -178 155 0 c142 0 154 1 148 17 -4
10 -57 98 -119 196 -113 181 -199 288 -262 327 -19 12 -35 25 -35 30 0 4 17
10 38 14 59 9 156 62 197 108 55 60 78 120 83 214 10 193 -84 328 -260 370
-100 23 -785 35 -793 13z m704 -237 c56 -28 76 -64 76 -137 0 -72 -18 -106
-75 -139 -30 -18 -58 -20 -237 -24 l-203 -5 0 162 0 161 203 0 c173 0 207 -3
236 -18z"/>
<path d="M4330 3130 l0 -650 130 0 130 0 0 650 0 650 -130 0 -130 0 0 -650z"/>
<path d="M5944 3767 c-2 -7 -3 -58 -2 -113 l3 -99 187 -3 188 -2 2 -533 3
-532 133 -3 132 -3 0 536 0 535 190 0 190 0 0 115 0 115 -510 0 c-414 0 -512
-3 -516 -13z"/>
<path d="M7130 3130 l0 -650 130 0 130 0 0 650 0 650 -130 0 -130 0 0 -650z"/>
<path d="M7996 3748 c-8 -18 -113 -287 -234 -598 -121 -311 -230 -589 -241
-618 l-21 -53 141 3 142 3 52 145 53 145 257 0 257 0 56 -147 57 -148 142 0
c79 0 143 1 143 3 0 1 -116 292 -258 647 l-258 645 -137 3 -138 3 -13 -33z
m311 -744 c-2 -3 -78 -3 -169 -2 l-165 3 76 210 c42 116 80 219 85 230 6 15
28 -34 93 -208 46 -126 83 -231 80 -233z"/>
<path d="M8940 3130 l0 -650 120 0 120 0 2 417 3 416 256 -414 256 -414 131
-3 132 -3 0 651 0 650 -120 0 -120 0 0 -427 c0 -264 -4 -423 -9 -418 -5 6
-124 197 -264 425 l-254 415 -127 3 -126 3 0 -651z"/>
<path d="M10230 3130 l0 -650 130 0 130 0 0 650 0 650 -130 0 -130 0 0 -650z"/>
<path d="M11094 3744 c-8 -19 -113 -288 -234 -597 -120 -309 -228 -586 -239
-615 l-21 -53 141 3 142 3 52 145 53 145 255 3 255 2 50 -127 c27 -71 52 -138
56 -150 7 -22 11 -23 152 -23 79 0 144 1 144 3 0 1 -116 292 -258 647 l-258
645 -137 3 -138 3 -15 -37z m313 -740 c-2 -3 -78 -3 -169 -2 l-165 3 76 210
c42 116 80 219 85 230 6 15 28 -34 93 -208 46 -126 83 -231 80 -233z"/>
<path d="M796 1588 c-8 -18 -113 -287 -234 -598 -121 -311 -230 -589 -241
-618 l-21 -53 141 3 142 3 52 145 53 145 257 0 257 0 56 -147 57 -148 142 0
c79 0 143 1 143 3 0 1 -116 292 -258 647 l-258 645 -137 3 -138 3 -13 -33z
m311 -744 c-2 -3 -78 -3 -169 -2 l-165 3 76 210 c42 116 80 219 85 230 6 15
28 -34 93 -208 46 -126 83 -231 80 -233z"/>
<path d="M1735 1609 c-3 -8 -4 -300 -3 -649 l3 -635 133 -3 132 -3 0 272 0
272 83 -5 c142 -7 158 -23 382 -361 l118 -177 155 0 c142 0 154 1 148 17 -4
10 -57 98 -119 196 -113 181 -199 288 -262 327 -19 12 -35 25 -35 30 0 4 17
10 38 14 59 9 156 62 197 108 55 60 78 120 83 214 10 193 -84 328 -260 370
-100 23 -785 35 -793 13z m704 -237 c56 -28 76 -64 76 -137 0 -72 -18 -106
-75 -139 -30 -18 -58 -20 -237 -24 l-203 -5 0 162 0 161 203 0 c173 0 207 -3
236 -18z"/>
<path d="M3035 1608 c-3 -7 -4 -299 -3 -648 l3 -635 493 -3 492 -2 0 110 0
110 -360 0 -360 0 0 175 0 175 323 2 322 3 3 108 3 107 -326 0 -325 0 0 140 0
140 345 0 345 0 0 115 0 115 -475 0 c-371 0 -477 -3 -480 -12z"/>
<path d="M4596 1588 c-53 -128 -486 -1248 -486 -1257 0 -8 39 -11 136 -9 l137
3 52 145 53 145 257 0 257 0 56 -147 57 -148 142 0 c79 0 143 1 143 3 0 1
-116 292 -258 647 l-258 645 -137 3 -138 3 -13 -33z m311 -744 c-2 -2 -78 -3
-169 -2 l-165 3 76 210 c42 116 80 219 85 230 6 15 28 -34 93 -208 47 -126 83
-230 80 -233z"/>
<path d="M5547 1604 c-4 -4 -7 -295 -7 -646 l0 -638 455 0 455 0 0 110 0 110
-320 0 -320 0 -2 533 -3 532 -126 3 c-69 1 -128 -1 -132 -4z"/>
</g>
</svg>
