<svg width="193" height="83" viewBox="0 0 193 83" fill="none" xmlns="http://www.w3.org/2000/svg">
<g clip-path="url(#clip0_362_364)">
<rect y="11" width="193" height="32" fill="white"/>
<path d="M193 31.619H0V35.5714H193V31.619Z" fill="#3F9C35"/>
<path d="M193 39.5238H0V47.4286H193V39.5238Z" fill="#003591"/>
<path d="M193 0H0V23.7143H193V0Z" fill="#99D9F0"/>
<path d="M116.47 59.3252C114.319 58.4226 112.003 57.9861 109.672 58.0443H96.2095V83H109.672C112.003 83.0583 114.319 82.6217 116.47 81.7188C118.298 80.9288 119.831 79.5777 120.847 77.8593C121.928 75.8797 122.455 73.6434 122.372 71.3875V69.6573C122.455 67.4015 121.928 65.1652 120.847 63.1855C119.831 61.4671 118.298 60.1158 116.47 59.3252ZM118.293 71.2537C118.383 72.3538 118.237 73.4603 117.865 74.499C117.493 75.5377 116.904 76.4847 116.138 77.2763C114.313 78.7137 112.018 79.4139 109.705 79.2395H100.354V61.8048H109.705C112.01 61.6321 114.299 62.3127 116.138 63.7179C116.912 64.5143 117.506 65.4693 117.878 66.5174C118.25 67.5656 118.392 68.6821 118.293 69.7903V71.2537Z" fill="white"/>
<path d="M153.508 77.5457L134.275 58.0447H131.988H130.23V83H134.275V63.5227L153.508 83H157.586V58.0447H153.508V77.5457Z" fill="white"/>
<path d="M188.591 58.0447L179.072 77.5457L169.556 58.0447H164.881L177.349 83H180.565L193 58.0447H188.591Z" fill="white"/>
</g>
<defs>
<clipPath id="clip0_362_364">
<rect width="193" height="83" fill="white"/>
</clipPath>
</defs>
</svg>
