<?xml version="1.0" encoding="UTF-8"?>
<svg xmlns="http://www.w3.org/2000/svg" viewBox="0 0 454.38 148.05">
  <defs>
    <style>.cls-1{fill:#fff;}</style>
  </defs>
  <g id="Layer_2" data-name="Layer 2">
    <g id="Layer_1-2" data-name="Layer 1">
      <path class="cls-1" d="M92.11,0C82.54,0,73,0,63.38,0c-1,0-1.15.38-1.15,1.22,0,4.34,0,8.67,0,13V16H26.54a25.48,25.48,0,0,0-11.11,2.31C6,22.8.12,30,.08,40.74-.06,76,0,111.31,0,146.6,0,147.78.39,148,1.48,148q45,0,90.06,0c.46,0,.91,0,1.37-.08V.09C92.54.06,92.33,0,92.11,0ZM62.66,82.19v35.28c0,1.79,0,1.79-1.76,1.79-9.49,0-19,0-28.48,0-1.23,0-1.6-.34-1.59-1.59q0-32.52,0-65A7.55,7.55,0,0,1,38.5,45c7.56,0,15.12,0,22.68,0,1.25,0,1.5.47,1.49,1.58Q62.64,64.35,62.66,82.19Z"></path>
      <path class="cls-1" d="M361.41,148v-1.86c0-17.52.14-35-.05-52.55-.15-13.49,9.28-22.61,20.13-25.24a27.15,27.15,0,0,1,6.24-.63c11.38-.06,22.77,0,34.15,0,1.85,0,1.86,0,1.86-1.85,0-4.08-.17-8.17,0-12.23A8.37,8.37,0,0,0,415.44,45c-5.41-.09-10.82-.1-16.23,0a7.5,7.5,0,0,0-7.27,7.54c0,1.53,0,3.07,0,4.69-.56,0-1,.07-1.39.07-9.32,0-18.65,0-28,0-1.23,0-1.5-.39-1.48-1.53.05-4.68,0-9.36,0-14,0-10.9,5.29-18.41,14.84-23.18A25.64,25.64,0,0,1,387.64,16c13.53,0,27.06,0,40.59,0,10,0,23.21,8.11,25.67,20.33a23,23,0,0,1,.44,4.46q0,52.81,0,105.62c0,1.2-.26,1.61-1.54,1.61q-45-.06-89.95,0Zm46.67-28.73c4.89,0,9.79,0,14.68,0,.92,0,1.3-.25,1.29-1.23q0-10.11,0-20.21c0-1-.33-1.29-1.26-1.29-7.64,0-15.28-.05-22.92,0-4.56.06-7.64,3.38-7.65,8,0,4.42,0,8.84,0,13.26,0,1.12.32,1.5,1.46,1.48C398.46,119.23,403.27,119.26,408.08,119.26Z"></path>
      <path class="cls-1" d="M212.63,82.09c0,13.26-.12,26.53,0,39.79.11,10-4.59,17-12.74,22a27.27,27.27,0,0,1-15,4.14q-19.65-.25-39.3,0c-10,.12-23.17-7.19-25.55-20.71a27.16,27.16,0,0,1-.38-4.59q0-40.51,0-81c0-10.93,5.37-18.48,15-23.22A26,26,0,0,1,146.25,16c12.93,0,25.86,0,38.79,0,9.16,0,16.51,3.8,22.37,10.59a21.54,21.54,0,0,1,5.23,14.56C212.61,54.79,212.63,68.44,212.63,82.09Zm-30.34,0q0-14.55,0-29.11a7.58,7.58,0,0,0-.2-1.9A8.45,8.45,0,0,0,173.67,45c-5,0-10,0-14.94,0s-8.25,3.19-8.25,8.3q0,13.85,0,27.69,0,15.14,0,30.26c0,4.07,3.08,7.72,6.73,7.78,5.84.1,11.69.14,17.52,0,4.54-.12,7.67-4.55,7.62-7.93C182.19,101.39,182.29,91.73,182.29,82.08Z"></path>
      <path class="cls-1" d="M331.88,148H302.31c-1.69,0-1.69,0-1.69-1.65V105c0-.56,0-1.12,0-1.67-.07-2.33-1.16-3.43-3.52-3.52-.55,0-1.11,0-1.67,0H273.6v1.74c0,14.94,0,29.88,0,44.82,0,1.29-.3,1.67-1.63,1.66q-14-.09-28,0c-1.23,0-1.49-.39-1.49-1.53q0-64.53,0-129c0-1.08.22-1.48,1.41-1.48,20.1,0,40.2,0,60.3.05,11.68,0,20.46,6.14,24.52,16.86a48.07,48.07,0,0,1,.52,34c-2.51,7-6.88,12.63-13.77,16a2.43,2.43,0,0,0-.44.26c-.07,0-.11.12-.28.31l1.65.63a24.64,24.64,0,0,1,13.1,10.68,15.79,15.79,0,0,1,2.34,8.43q0,21.57,0,43.15ZM273.6,57.83c0,3.86,0,7.73,0,11.59,0,1.12.29,1.46,1.44,1.45,6.57-.05,13.13,0,19.7-.05a13.18,13.18,0,0,0,3.41-.53c2.14-.59,3-1.83,3-4,0-5.58,0-11.16,0-16.74a3.72,3.72,0,0,0-2.4-3.74A10.21,10.21,0,0,0,295,45c-6.7-.07-13.4,0-20.09-.05-1,0-1.35.26-1.34,1.31C273.63,50.11,273.6,54,273.6,57.83Z"></path>
    </g>
  </g>
</svg>
