<svg id="Layer_1" data-name="Layer 1" xmlns="http://www.w3.org/2000/svg" viewBox="0 0 392.29 463.83"><defs><style>.cls-1{fill:#fff;}</style></defs><path class="cls-1" d="M438.63,108.38V273.52a58.87,58.87,0,0,1-58.87,58.87H186.58a58.84,58.84,0,0,1-58.85-58.84V186.2a58.87,58.87,0,0,1,58.87-58.87H302.7a58.87,58.87,0,0,1,58.12,49.5h-163a20.52,20.52,0,0,0-20.52,20.53v65a20.52,20.52,0,0,0,20.52,20.51H368.59a20.52,20.52,0,0,0,20.53-20.51V119.54A20.52,20.52,0,0,0,368.59,99H119.81a20.52,20.52,0,0,0-20.53,20.53V332.18H49.77V49.33l330,.17A58.88,58.88,0,0,1,438.63,108.38Z" transform="translate(-49.2 -49.33)"/><path class="cls-1" d="M205.7,254.47V205.53l155.12-.41v29a20.33,20.33,0,0,1-20.34,20.34Z" transform="translate(-49.2 -49.33)"/><path class="cls-1" d="M49.2,437.14V381.86h36v8.75H60.44v13H80.61v8.75H60.44v16H85.22v8.76Z" transform="translate(-49.2 -49.33)"/><path class="cls-1" d="M138.65,438.33c-15.94,0-29.66-11-29.66-28.83s13.72-28.84,29.66-28.84c7.28,0,14.65,2.12,19.26,5.62v10.23a26.88,26.88,0,0,0-18.06-6.82c-11,0-19.07,7.37-19.07,19.81s8.11,19.81,19.07,19.81a26.88,26.88,0,0,0,18.06-6.82v10.22C153.3,436.21,145.93,438.33,138.65,438.33Z" transform="translate(-49.2 -49.33)"/><path class="cls-1" d="M206,437.14H186.56V381.86H206c22.11,0,31.42,12.43,31.42,27.64S228.11,437.14,206,437.14Zm-.55-46.25H197.8v37.22h7.65c15.11,0,20.45-7.56,20.45-18.61S220.56,390.89,205.45,390.89Z" transform="translate(-49.2 -49.33)"/><path class="cls-1" d="M282.38,437.14l-5.62-13.64H254.37l-5.62,13.64H237.88l23.49-55.28h8.75l23.5,55.28Zm-16.77-41.56-8.2,20.09h16.3Z" transform="translate(-49.2 -49.33)"/><path class="cls-1" d="M337.84,437.14V412.72H311.76v24.42H300.52V381.86h11.24v21.37h26.08V381.86h11.24v55.28Z" transform="translate(-49.2 -49.33)"/><path class="cls-1" d="M361.24,437.14V381.86h11.24v46.52h24.78v8.76Z" transform="translate(-49.2 -49.33)"/><path class="cls-1" d="M421.31,438.24a29.58,29.58,0,0,1-19.63-6.91l2.58-8.84C408,426,413.75,430,421.31,430c5.52,0,9.76-2.76,9.76-7.65,0-4.6-2.58-7-11.61-9.21-11.61-2.86-16.21-9-16.21-16.95,0-9,7.18-15.57,19.07-15.57A28,28,0,0,1,438.9,386l-2.39,7.83c-3.87-2.58-9.4-4.79-14.28-4.79-5.44,0-8.66,2.4-8.66,6.36,0,3.22,1.93,5.71,9.49,7.56,12.89,3.22,18.42,8.66,18.42,18.24C441.48,433.08,431.72,438.24,421.31,438.24Z" transform="translate(-49.2 -49.33)"/><path class="cls-1" d="M49.2,511.6V456.32h36v8.75H60.44v13H80.61v8.75H60.44v16H85.22v8.76Z" transform="translate(-49.2 -49.33)"/><path class="cls-1" d="M100.14,511.6V456.32h11.24V511.6Z" transform="translate(-49.2 -49.33)"/><path class="cls-1" d="M128,511.6V456.32h36v8.75H139.21v13h20.17v8.75H139.21v16H164v8.76Z" transform="translate(-49.2 -49.33)"/><path class="cls-1" d="M217.89,511.6,189,475.11V511.6H178.91V456.32h7.83l28.93,36.48V456.32h10.05V511.6Z" transform="translate(-49.2 -49.33)"/><path class="cls-1" d="M261.83,511.6H242.39V456.32h19.44c22.11,0,31.42,12.43,31.42,27.64S283.94,511.6,261.83,511.6Zm-.55-46.25h-7.65v37.22h7.65c15.11,0,20.45-7.56,20.45-18.61S276.39,465.35,261.28,465.35Z" transform="translate(-49.2 -49.33)"/><path class="cls-1" d="M334.61,513.16c-16.95,0-30.12-12.25-30.12-29.2s13.17-29.21,30.12-29.21S364.46,467,364.46,484,351.47,513.16,334.61,513.16Zm0-49.47c-11.05,0-18.33,8.29-18.33,20.27s7.28,20.27,18.33,20.27c10.88,0,18.06-8.3,18.06-20.27S345.49,463.69,334.61,463.69Z" transform="translate(-49.2 -49.33)"/><path class="cls-1" d="M428.22,511.6V477.69c0-1.29.27-4.88.37-5.25l-2,5.25L411.73,511.6h-6.91L390,477.69c-.55-1.29-1.75-4.7-1.93-5.25,0,.28.27,4,.27,5.25V511.6h-9.85V456.32h12l18.25,40.44,18.15-40.44h11.6V511.6Z" transform="translate(-49.2 -49.33)"/><path class="cls-1" d="M438.63,108.38V273.52a58.87,58.87,0,0,1-58.87,58.87H186.58a58.84,58.84,0,0,1-58.85-58.84V186.2a58.87,58.87,0,0,1,58.87-58.87H302.7a58.87,58.87,0,0,1,58.12,49.5h-163a20.52,20.52,0,0,0-20.52,20.53v65a20.52,20.52,0,0,0,20.52,20.51H368.59a20.52,20.52,0,0,0,20.53-20.51V119.54A20.52,20.52,0,0,0,368.59,99H119.81a20.52,20.52,0,0,0-20.53,20.53V332.18H49.77V49.33l330,.17A58.88,58.88,0,0,1,438.63,108.38Z" transform="translate(-49.2 -49.33)"/><path class="cls-1" d="M205.7,254.47V205.53l155.12-.41v29a20.33,20.33,0,0,1-20.34,20.34Z" transform="translate(-49.2 -49.33)"/><path class="cls-1" d="M49.2,437.14V381.86h36v8.75H60.44v13H80.61v8.75H60.44v16H85.22v8.76Z" transform="translate(-49.2 -49.33)"/><path class="cls-1" d="M138.65,438.33c-15.94,0-29.66-11-29.66-28.83s13.72-28.84,29.66-28.84c7.28,0,14.65,2.12,19.26,5.62v10.23a26.88,26.88,0,0,0-18.06-6.82c-11,0-19.07,7.37-19.07,19.81s8.11,19.81,19.07,19.81a26.88,26.88,0,0,0,18.06-6.82v10.22C153.3,436.21,145.93,438.33,138.65,438.33Z" transform="translate(-49.2 -49.33)"/><path class="cls-1" d="M206,437.14H186.56V381.86H206c22.11,0,31.42,12.43,31.42,27.64S228.11,437.14,206,437.14Zm-.55-46.25H197.8v37.22h7.65c15.11,0,20.45-7.56,20.45-18.61S220.56,390.89,205.45,390.89Z" transform="translate(-49.2 -49.33)"/><path class="cls-1" d="M282.38,437.14l-5.62-13.64H254.37l-5.62,13.64H237.88l23.49-55.28h8.75l23.5,55.28Zm-16.77-41.56-8.2,20.09h16.3Z" transform="translate(-49.2 -49.33)"/><path class="cls-1" d="M337.84,437.14V412.72H311.76v24.42H300.52V381.86h11.24v21.37h26.08V381.86h11.24v55.28Z" transform="translate(-49.2 -49.33)"/><path class="cls-1" d="M361.24,437.14V381.86h11.24v46.52h24.78v8.76Z" transform="translate(-49.2 -49.33)"/><path class="cls-1" d="M421.31,438.24a29.58,29.58,0,0,1-19.63-6.91l2.58-8.84C408,426,413.75,430,421.31,430c5.52,0,9.76-2.76,9.76-7.65,0-4.6-2.58-7-11.61-9.21-11.61-2.86-16.21-9-16.21-16.95,0-9,7.18-15.57,19.07-15.57A28,28,0,0,1,438.9,386l-2.39,7.83c-3.87-2.58-9.4-4.79-14.28-4.79-5.44,0-8.66,2.4-8.66,6.36,0,3.22,1.93,5.71,9.49,7.56,12.89,3.22,18.42,8.66,18.42,18.24C441.48,433.08,431.72,438.24,421.31,438.24Z" transform="translate(-49.2 -49.33)"/><path class="cls-1" d="M49.2,511.6V456.32h36v8.75H60.44v13H80.61v8.75H60.44v16H85.22v8.76Z" transform="translate(-49.2 -49.33)"/><path class="cls-1" d="M100.14,511.6V456.32h11.24V511.6Z" transform="translate(-49.2 -49.33)"/><path class="cls-1" d="M128,511.6V456.32h36v8.75H139.21v13h20.17v8.75H139.21v16H164v8.76Z" transform="translate(-49.2 -49.33)"/><path class="cls-1" d="M217.89,511.6,189,475.11V511.6H178.91V456.32h7.83l28.93,36.48V456.32h10.05V511.6Z" transform="translate(-49.2 -49.33)"/><path class="cls-1" d="M261.83,511.6H242.39V456.32h19.44c22.11,0,31.42,12.43,31.42,27.64S283.94,511.6,261.83,511.6Zm-.55-46.25h-7.65v37.22h7.65c15.11,0,20.45-7.56,20.45-18.61S276.39,465.35,261.28,465.35Z" transform="translate(-49.2 -49.33)"/><path class="cls-1" d="M334.61,513.16c-16.95,0-30.12-12.25-30.12-29.2s13.17-29.21,30.12-29.21S364.46,467,364.46,484,351.47,513.16,334.61,513.16Zm0-49.47c-11.05,0-18.33,8.29-18.33,20.27s7.28,20.27,18.33,20.27c10.88,0,18.06-8.3,18.06-20.27S345.49,463.69,334.61,463.69Z" transform="translate(-49.2 -49.33)"/><path class="cls-1" d="M428.22,511.6V477.69c0-1.29.27-4.88.37-5.25l-2,5.25L411.73,511.6h-6.91L390,477.69c-.55-1.29-1.75-4.7-1.93-5.25,0,.28.27,4,.27,5.25V511.6h-9.85V456.32h12l18.25,40.44,18.15-40.44h11.6V511.6Z" transform="translate(-49.2 -49.33)"/></svg>