<?xml version="1.0" encoding="utf-8"?>
<!-- Generator: Adobe Illustrator 27.0.1, SVG Export Plug-In . SVG Version: 6.00 Build 0)  -->
<!DOCTYPE svg PUBLIC "-//W3C//DTD SVG 1.1//EN" "http://www.w3.org/Graphics/SVG/1.1/DTD/svg11.dtd" [
	<!ENTITY ns_extend "http://ns.adobe.com/Extensibility/1.0/">
	<!ENTITY ns_ai "http://ns.adobe.com/AdobeIllustrator/10.0/">
	<!ENTITY ns_graphs "http://ns.adobe.com/Graphs/1.0/">
	<!ENTITY ns_vars "http://ns.adobe.com/Variables/1.0/">
	<!ENTITY ns_imrep "http://ns.adobe.com/ImageReplacement/1.0/">
	<!ENTITY ns_sfw "http://ns.adobe.com/SaveForWeb/1.0/">
	<!ENTITY ns_custom "http://ns.adobe.com/GenericCustomNamespace/1.0/">
	<!ENTITY ns_adobe_xpath "http://ns.adobe.com/XPath/1.0/">
]>
<svg version="1.1" id="Lager_1" xmlns:x="&ns_extend;" xmlns:i="&ns_ai;" xmlns:graph="&ns_graphs;"
	 xmlns="http://www.w3.org/2000/svg" xmlns:xlink="http://www.w3.org/1999/xlink" x="0px" y="0px" viewBox="0 0 1920 554.3"
	 style="enable-background:new 0 0 1920 554.3;" xml:space="preserve">
<style type="text/css">
	.st0{fill:#FFFFFF;}
</style>
<metadata>
	<sfw  xmlns="&ns_sfw;">
		<slices></slices>
		<sliceSourceBounds  bottomLeftOrigin="true" height="554.3" width="1920" x="0" y="291.01"></sliceSourceBounds>
	</sfw>
</metadata>
<g>
	<g>
		<path class="st0" d="M129.21,269.17c-38.2,0-62.42,18.43-76.45,34.96v-29.85H0v274.29h52.76V385.59
			c0-43.35,32.8-66.73,63.66-66.73c45.6,0,52.41,38.93,52.41,62.13v167.58h52.76V368.7C221.59,307.31,186.19,269.17,129.21,269.17
			L129.21,269.17z"/>
		<path class="st0" d="M386.16,269.27c-73.39,0-126.65,59.94-126.65,142.52c0,83.91,52.92,142.51,128.7,142.51
			c52.03,0,93.61-27.64,111.23-73.93l0.38-1l-44.54-23.19l-0.74,2.86c-7.86,30.46-32.66,48.64-66.33,48.64
			c-43.77,0-74.2-33.46-77.79-85.38H503.6v-18.71C503.6,321.99,457.5,269.27,386.16,269.27L386.16,269.27z M313.49,380.29
			c8.66-40.68,35.55-64.92,72.15-64.92c44.64,0,62.56,33.29,64.54,64.92H313.49z"/>
		<polygon class="st0" points="830.99,274.28 773.61,463.82 722.18,274.28 678.19,274.28 624.08,465.37 565.97,274.28 
			512.86,274.28 599.15,548.57 644.58,548.57 699.62,359.12 751.03,548.57 796.47,548.57 882.76,274.28 		"/>
		<path class="st0" d="M1013.63,386l-9.05-2.06c-34.83-7.63-55.85-12.23-55.85-34.06c0-21.89,18.77-36.04,47.81-36.04
			c28.6,0,51.21,11.98,65.38,34.63l0.57,0.92l43.31-21.27l-0.87-1.75c-17.35-34.69-59.09-57.1-106.35-57.1
			c-58.86,0-101.58,35.4-101.58,84.19c0,56.99,46.57,67.28,91.61,77.23l6.39,1.34c39.74,8.27,61.63,12.83,61.63,38.07
			c0,9.59-3.31,17.72-9.85,24.17c-9.53,9.4-26.04,14.95-44.36,14.95c-0.42,0-0.84,0-1.25-0.01c-38.46-0.53-66-22.02-76.23-43.07
			l-0.53-1.08l-45.24,22.31l1.3,2.64c19.58,39.65,65.83,64.28,120.68,64.28c62.12,0,107.21-37.13,107.21-88.29
			C1108.35,407.79,1058.03,396.21,1013.63,386L1013.63,386z"/>
		<path class="st0" d="M1258.28,269.27c-73.39,0-126.65,59.94-126.65,142.52c0,83.91,52.93,142.51,128.7,142.51
			c52.03,0,93.61-27.64,111.22-73.93l0.38-1l-44.54-23.19l-0.73,2.86c-7.86,30.46-32.66,48.64-66.33,48.64
			c-43.78,0-74.21-33.46-77.8-85.38h193.19v-18.71C1375.72,321.99,1329.62,269.27,1258.28,269.27L1258.28,269.27z M1185.61,380.29
			c8.67-40.68,35.55-64.92,72.16-64.92c44.64,0,62.56,33.29,64.53,64.92H1185.61L1185.61,380.29z"/>
		<path class="st0" d="M1598.42,453.12l-0.34,1.39c-8.36,33.96-30.68,52.66-62.83,52.66c-46.76,0-76.97-37.44-76.97-95.38
			c0-58.26,30.21-95.9,76.97-95.9c31.56,0,54.47,19.22,62.85,52.73l0.34,1.38l46.69-20.69l-0.29-1.01
			c-14.08-48.75-56.07-79.03-109.59-79.03c-76.38,0-129.72,58.6-129.72,142.52s53.34,142.51,129.72,142.51
			c53.23,0,95.44-30.35,110.17-79.2l0.3-1.01L1598.42,453.12L1598.42,453.12z"/>
	</g>
	<polygon class="st0" points="1483.64,0 1315.32,124.67 1795.32,124.67 1795.32,386.49 1920,218.18 1920,0 	"/>
</g>
</svg>
