<svg xmlns="http://www.w3.org/2000/svg" viewBox="0 0 232.8 221.56"><defs><style>.cls-1{fill:#fff;}</style></defs><g id="Layer_2" data-name="Layer 2"><g id="Layer_1-2" data-name="Layer 1"><path class="cls-1" d="M38,175.86a6.82,6.82,0,0,1-4,1c-5.93,0-8.11-5.8-10.22-11.6-1.71-4.54-4-8.76-7.64-9.35-1,0-7.91,0-8.83-.07,0,9,.07,15.36.13,17.33a2.72,2.72,0,0,0,2.05,3l-.07.33c-1.25-.13-3.16-.2-4.68-.2s-3.3.07-4.61.2L0,176.19a2.72,2.72,0,0,0,2-3c.07-2,.14-8.3.14-18.52S2.11,138.09,2,136.18s-.92-2.63-2-2.76v-.33c2.57-.14,12.19-.2,14.89-.2,12.13,0,17.67,4.94,17.67,10.87,0,6.72-5.34,10.61-13,11.87,3.76,1.32,7.05,6.19,9.75,10.87,4.49,7.71,6.13,9.49,8.57,9ZM7.25,154c.72.06,7.38.13,8.1.13,8.24,0,11.6-4.35,11.6-10.35s-3.6-8.87-11.91-9.19c-.53,0-7.08,0-7.66,0C7.32,137.83,7.25,145.28,7.25,154Z"/><path class="cls-1" d="M44.64,176.52l-.06-.33a2.72,2.72,0,0,0,2-3c.07-2,.13-8.3.13-18.52s-.06-16.61-.13-18.52a2.71,2.71,0,0,0-2-3l.06-.33c1.32.13,3.17.2,4.68.2H73.4A33.05,33.05,0,0,0,75,138.23l-.39.26c-3.76-3.23-8.9-3.89-14.83-3.89-1.78,0-5.89.07-7.8.2-.07,2.7-.13,9.56-.13,18.39H55.7c12.9-.1,13.84-.67,14.54-2.76l.33.06A19.89,19.89,0,0,0,70.3,154a19.31,19.31,0,0,0,.27,3.56l-.33.07c-.76-2.28-1.64-2.67-14.54-2.76H51.83c0,9.76.06,17.33.13,19.84h6.68c7.51,0,14.7-.66,19-3.89l.34.26c-.67,1.26-1.79,3.69-2.38,5.21H49.32C47.81,176.32,46,176.39,44.64,176.52Z"/><path class="cls-1" d="M91.32,176.32c-1.51,0-3.36.07-4.68.2l-.06-.33a2.72,2.72,0,0,0,2-3c.07-2,.13-8.3.13-18.52s-.06-16.61-.13-18.52a2.71,2.71,0,0,0-2-3l.06-.33c1.32.13,3.17.2,4.68.2s3.37-.07,4.62-.2l.06.33c-1.45.53-2,1.18-2,2.9-.07,2-.13,8.3-.13,18.58s.06,16.55.13,18.52a2.73,2.73,0,0,0,2,3l-.06.33C94.69,176.39,92.77,176.32,91.32,176.32Z"/><path class="cls-1" d="M127.12,134.67h-1.05v20c0,10.22.06,16.55.13,18.52a2.73,2.73,0,0,0,2,3l-.06.33c-1.26-.13-3.17-.2-4.68-.2s-3.3.07-4.62.2l-.06-.33a2.72,2.72,0,0,0,2-3c.07-2,.13-8.3.13-18.52v-20h-1c-6.07,0-10.94,1-15,3.89l-.33-.27a30.59,30.59,0,0,0,1.58-5.2h34.67a39.29,39.29,0,0,0,1.58,5.14l-.33.33C138,135.66,133.19,134.67,127.12,134.67Z"/><path class="cls-1" d="M185.89,176.19l-.07.33c-1.65-.13-3.62-.2-5.27-.2a52.13,52.13,0,0,0-5.54.27l-.13-.4c1.84-.66,2.37-1.39,1.58-3s-2.5-5.61-4.68-10.28H150.43c-1.72,3.89-3.23,7.31-4.15,9.55s-.27,3.1,1.64,3.76l-.06.4a31.28,31.28,0,0,0-4.22-.27,39,39,0,0,0-4.09.2l-.06-.33a6,6,0,0,0,3.56-3.23c4.54-9.1,13.57-27.94,19.11-40.53h.92c5,11.07,15,32.36,18.92,40A7.58,7.58,0,0,0,185.89,176.19Zm-15-15.36c-3.49-7.58-7.65-16.47-10-21.29-2.51,5.34-6.4,13.91-9.62,21.29Z"/><path class="cls-1" d="M232.8,133.22a2.57,2.57,0,0,0-2,2.7c-.2,3.29-.39,8.5-.39,18.78s.06,18.39.26,22.74h-1.32l-33.26-40c.13,4.34.13,9,.13,17.26,0,9.89.26,15.49.46,18.79a2.82,2.82,0,0,0,2.05,2.7l-.07.33a28,28,0,0,0-3.3-.2,34.21,34.21,0,0,0-3.42.2l-.07-.33a2.68,2.68,0,0,0,2-2.7c.2-3.3.4-8.57.4-18.79s-.07-15.75-.13-17.53c-.07-2.17-.86-3.29-2.44-3.95l.07-.33c1.58.13,2.9.2,3.88.2s2.24,0,3.36-.07l29.58,35.72c-.07-3.69-.14-8.63-.14-14,0-9.95-.26-15.49-.46-18.78a2.68,2.68,0,0,0-2-2.7l.07-.33a27.93,27.93,0,0,0,3.29.2,34.23,34.23,0,0,0,3.43-.2Z"/><path class="cls-1" d="M139.07,36.59V23.9a7,7,0,0,0,8.66-1,7,7,0,0,0,0-10l-5.45-5.45-15.4,15.39-9-9A7,7,0,0,0,116.27,0h-7.72V21.78H95.86a7,7,0,0,0-11-8.67l-5.45,5.46L94.83,34l-9,9A7,7,0,0,0,72,44.58v7.71H93.74V65a7,7,0,0,0-8.67,11l5.46,5.46L105.93,66l9,9a7,7,0,0,0,1.64,13.88h7.71V67.11H137a7,7,0,0,0,11,8.66l5.46-5.45L138,54.92l9-9a7,7,0,0,0,13.88-1.63V36.59ZM82.13,48.38H75.88v-3.8a3.13,3.13,0,1,1,6.25,0ZM142.28,13,145,15.69a3.13,3.13,0,0,1,0,4.42,3.2,3.2,0,0,1-4.42,0l-2.68-2.68Zm-7.13,7.14V36.59H118.69ZM112.47,3.92h3.8a3.13,3.13,0,0,1,0,6.25h-3.8Zm0,10.07,11.64,11.64L112.47,37.28ZM89.39,23,85,18.57l2.68-2.69a3.13,3.13,0,1,1,4.42,4.42Zm2.7,2.7h16.46V42.15ZM86,48.38,97.59,36.73l11.64,11.65Zm4.58,27.5-2.69-2.69a3.13,3.13,0,0,1,4.42-4.42L95,71.46Zm7.12-7.12V52.29h16.47ZM120.34,85h-3.8a3.13,3.13,0,1,1,0-6.25h3.8Zm0-10.08L108.7,63.25l11.64-11.64Zm-3.94-26a4.42,4.42,0,1,1,4.43-4.42A4.42,4.42,0,0,1,116.4,48.86Zm27,17,4.42,4.42L145.15,73a3.2,3.2,0,0,1-4.42,0,3.13,3.13,0,0,1,0-4.42Zm-2.7-2.71H124.25V46.73Zm-5.51-11L123.57,40.51h23.28Zm21.72-7.84a3.13,3.13,0,0,1-6.25,0v-3.8h6.25Z"/><path class="cls-1" d="M56.33,221.14H40.54V199H56v2.53H43.5v7h10V211h-10v7.63H56.33Z"/><path class="cls-1" d="M64.81,199v22.15H61.75V199Z"/><path class="cls-1" d="M87.59,221.14H71.8V199H87.27v2.53H74.75v7h10V211h-10v7.63H87.59Z"/><path class="cls-1" d="M108.3,215.94V199h2.85v22.15h-2.43L95.85,203.35v17.79H93V199h3.17Z"/><path class="cls-1" d="M118.18,199h8c7,0,11.36,4.15,11.36,11.07s-4.4,11.08-11.36,11.08h-8ZM126,218.64c5.42,0,8.37-3.2,8.37-8.58s-2.95-8.58-8.37-8.58h-4.78v17.16Z"/><path class="cls-1" d="M153.37,221.56c-6.47,0-11-4.68-11-11.5s4.53-11.5,11-11.5,11,4.68,11,11.5S159.81,221.56,153.37,221.56Zm0-20.39c-4.78,0-7.87,3.48-7.87,8.89s3.09,8.9,7.87,8.9,7.85-3.48,7.85-8.9S158.16,201.17,153.37,201.17Z"/><path class="cls-1" d="M180,221.14l-6.71-19.06h-.14v19.06h-2.85V199h4.89l6.22,18h.11l5.9-18h4.82v22.15H189.2V202.08h-.14l-6.47,19.06Z"/></g></g></svg>