<?xml version="1.0" encoding="UTF-8"?>
<svg xmlns="http://www.w3.org/2000/svg" id="Layer_1" data-name="Layer 1" viewBox="0 0 396.98 270.57">
  <defs>
    <style>.cls-1{fill:#fff;}</style>
  </defs>
  <path class="cls-1" d="M969.48,457a5.56,5.56,0,0,1-4-1.63l-41.24-41.24a5.58,5.58,0,0,1,0-7.89l96.13-96.13a5.59,5.59,0,0,1,7.89,0l41.24,41.25a5.5,5.5,0,0,1,1.64,3.94,5.57,5.57,0,0,1-1.64,4l-96.12,96.12A5.56,5.56,0,0,1,969.48,457Zm-40.6-46.82,40.6,40.6L1065,355.25l-40.6-40.6Z" transform="translate(-765.01 -308.43)"></path>
  <path class="cls-1" d="M924.37,456.93h0a5.63,5.63,0,0,1-4-1.64l-41.61-41.62a5.59,5.59,0,0,1,0-7.89l41.38-41.38a5.59,5.59,0,0,1,7.9,0L969.7,406a5.59,5.59,0,0,1,0,7.9l-41.37,41.37A5.57,5.57,0,0,1,924.37,456.93Zm-41-47.21,41,41L965.11,410l-41-41Z" transform="translate(-765.01 -308.43)"></path>
  <path class="cls-1" d="M765,577.54V505.65h49.31c13,0,19.67,9.62,19.67,20.69,0,10.17-5.25,19.45-17.33,20.46h-1.45L833,577.54H820l-17.67-30.63H776.64v30.63Zm11.63-41.37h37.68c5.81,0,8-4.24,8-9.72,0-5.26-2.47-10.18-8-10.18H776.64Z" transform="translate(-765.01 -308.43)"></path>
  <path class="cls-1" d="M855.79,505.65H922v10.62H867.42v19.9H908v10.74H867.42v20H922v10.62H855.79Z" transform="translate(-765.01 -308.43)"></path>
  <path class="cls-1" d="M941.64,505.65h11.63v61.27h42v10.62H941.64Z" transform="translate(-765.01 -308.43)"></path>
  <path class="cls-1" d="M1039,504.2c22.47,0,35.32,18,35.32,37.45S1061.49,579,1039,579s-35.11-18.11-35.11-37.34S1016.66,504.2,1039,504.2Zm0,11.29c-14.65,0-22.7,13-22.7,26s8,25.94,22.7,25.94,23-12.75,23-25.83S1053.88,515.49,1039,515.49Z" transform="translate(-765.01 -308.43)"></path>
  <path class="cls-1" d="M1126.55,504.2c14.31,0,25.38,7.49,31.64,19.23L1159,525l-13.86.11-.33-.44a23,23,0,0,0-18.23-9.17c-14.64,0-22.58,13.08-22.58,26s8,25.94,22.69,25.94c12.3,0,20.8-9,22.92-19.9h-21.69V537h33.88l.11,1c0,1.23.11,2.46.11,3.69,0,19.23-12.74,37.34-35.21,37.34s-35.22-18-35.22-37.34C1091.56,522.53,1104.3,504.2,1126.55,504.2Z" transform="translate(-765.01 -308.43)"></path>
</svg>
