<?xml version="1.0" encoding="UTF-8"?><svg id="Layer_2" xmlns="http://www.w3.org/2000/svg" viewBox="0 0 451.5 89.83"><defs><style>.cls-1{fill:#fff;}</style></defs><g id="Guides"><g><g><polygon class="cls-1" points="65.62 40.14 88.01 0 77.77 0 60.44 31.33 65.62 40.14"/><polygon class="cls-1" points="74.03 0 63.79 0 53.41 19.3 58.55 28.1 74.03 0"/><polygon class="cls-1" points="0 0 51.62 89.83 70.57 56.34 37.9 0 0 0"/><polygon class="cls-1" points="91.5 0 67.34 43.44 72.63 52.04 101.75 0 91.5 0"/></g><g><path class="cls-1" d="m133.37,44.51l-8.57-26.27h3.19l7.64,24,7.76-24h2.26l-8.73,26.27h-3.56Z"/><path class="cls-1" d="m154.51,44.51v-20.21h11.64v1.78h-8.73v7.36h7.92v1.74h-7.92v7.56h9.34v1.78h-12.24Z"/><path class="cls-1" d="m179.18,44.29c-.96-.41-1.66-.86-2.1-1.33s-.67-.76-.67-.87l.85-1.57c0,.08.2.34.61.77s.99.84,1.76,1.21c.77.37,1.72.57,2.85.57,1.27,0,2.25-.36,2.95-1.07s1.05-1.61,1.05-2.69-.34-1.81-1.01-2.34c-.67-.54-1.71-1.09-3.11-1.66-1.11-.48-1.99-.92-2.65-1.31-.66-.39-1.22-.94-1.7-1.63-.47-.7-.71-1.59-.71-2.67,0-1.75.57-3.15,1.72-4.2,1.14-1.05,2.67-1.58,4.58-1.58.94,0,1.79.14,2.55.42.76.28,1.36.59,1.82.93.46.34.69.53.69.59l-.4,1.61s-.22-.2-.66-.53c-.45-.32-1.01-.62-1.68-.89-.67-.27-1.39-.4-2.14-.4-1.11,0-1.98.31-2.62.93-.65.62-.97,1.44-.97,2.47s.34,1.8,1.03,2.34,1.73,1.11,3.13,1.7c1.11.46,2,.88,2.67,1.28.67.39,1.25.93,1.72,1.63.47.7.71,1.6.71,2.71,0,1.81-.61,3.3-1.82,4.47-1.21,1.17-2.79,1.76-4.73,1.76-1.51,0-2.74-.21-3.7-.63Z"/><path class="cls-1" d="m203.89,44.51v-18.43h-5.94v-1.78h14.79v1.78h-5.9v18.43h-2.95Z"/><path class="cls-1" d="m222.76,44.51v-20.21h11.64v1.78h-8.73v7.36h7.92v1.74h-7.92v7.56h9.34v1.78h-12.24Z"/><path class="cls-1" d="m246.16,44.51v-20.21h3.07l10.22,15.84-.12-.85v-14.99h2.1v20.21h-2.5l-10.79-16.53h-.04l.2,1.21v15.32h-2.14Z"/><path class="cls-1" d="m274.61,44.51v-26.27h14.43v1.94h-11.36v10.47h9.78v1.86h-9.78v12h-3.07Z"/><path class="cls-1" d="m297.91,44.61c-.58-.2-1-.41-1.27-.62-.27-.21-.4-.35-.4-.4l.65-1.54c.05.06.17.17.37.35.19.17.47.35.85.5.37.16.83.24,1.37.24.86,0,1.55-.34,2.06-1.03s.77-1.92.77-3.7v-14.1h2.91v14.1c0,2.37-.44,4.05-1.33,5.03-.89.99-2.14,1.48-3.76,1.48-.89,0-1.62-.1-2.2-.31Z"/><path class="cls-1" d="m317.65,44.51v-20.21h11.64v1.78h-8.73v7.36h7.92v1.74h-7.92v7.56h9.34v1.78h-12.24Z"/><path class="cls-1" d="m341.05,44.51v-20.21h2.91v18.43h9.05v1.78h-11.96Z"/><path class="cls-1" d="m363.19,24.31h6.59c3.07,0,5.45.87,7.13,2.6,1.68,1.74,2.53,4.25,2.53,7.54s-.83,5.79-2.48,7.5c-1.66,1.71-4.04,2.57-7.13,2.57h-6.63v-20.21Zm6.63,18.39c2.15,0,3.77-.66,4.85-1.98,1.08-1.32,1.62-3.41,1.62-6.27s-.55-4.92-1.64-6.28-2.71-2.04-4.87-2.04h-3.68v16.57h3.72Z"/><path class="cls-1" d="m391.91,44.29c-.96-.41-1.66-.86-2.1-1.33s-.67-.76-.67-.87l.85-1.57c0,.08.2.34.61.77s.99.84,1.76,1.21c.77.37,1.72.57,2.85.57,1.27,0,2.25-.36,2.95-1.07s1.05-1.61,1.05-2.69-.34-1.81-1.01-2.34c-.67-.54-1.71-1.09-3.11-1.66-1.11-.48-1.99-.92-2.65-1.31-.66-.39-1.22-.94-1.7-1.63-.47-.7-.71-1.59-.71-2.67,0-1.75.57-3.15,1.72-4.2,1.14-1.05,2.67-1.58,4.58-1.58.94,0,1.79.14,2.55.42.76.28,1.36.59,1.82.93.46.34.69.53.69.59l-.4,1.61s-.22-.2-.66-.53c-.45-.32-1.01-.62-1.68-.89-.67-.27-1.39-.4-2.14-.4-1.11,0-1.98.31-2.62.93-.65.62-.97,1.44-.97,2.47s.34,1.8,1.03,2.34,1.73,1.11,3.13,1.7c1.11.46,2,.88,2.67,1.28.67.39,1.25.93,1.72,1.63.47.7.71,1.6.71,2.71,0,1.81-.61,3.3-1.82,4.47-1.21,1.17-2.79,1.76-4.73,1.76-1.51,0-2.74-.21-3.7-.63Z"/><path class="cls-1" d="m413.35,44.51v-20.21h2.91v10.55l2.43-1.94,6.83-8.61h2.34l-7.15,8.81,8.16,11.4h-3.68l-6.67-9.25-2.26,1.74v7.52h-2.91Z"/><path class="cls-1" d="m439.25,44.51v-20.21h11.64v1.78h-8.73v7.36h7.92v1.74h-7.92v7.56h9.34v1.78h-12.24Z"/></g><g><path class="cls-1" d="m214.02,67.38v-13.15h7.57v1.15h-5.68v4.79h5.15v1.13h-5.15v4.92h6.07v1.16h-7.97Z"/><path class="cls-1" d="m235.81,67.38v-13.15h1.89v13.15h-1.89Z"/><path class="cls-1" d="m252.56,67.38v-13.15h7.57v1.15h-5.68v4.79h5.15v1.13h-5.15v4.92h6.07v1.16h-7.97Z"/><path class="cls-1" d="m274.36,67.38v-13.15h2l6.65,10.31-.08-.55v-9.75h1.37v13.15h-1.63l-7.02-10.75h-.03l.13.79v9.97h-1.39Z"/><path class="cls-1" d="m299.13,54.24h4.29c2,0,3.55.57,4.64,1.69,1.1,1.13,1.64,2.77,1.64,4.9s-.54,3.77-1.62,4.88c-1.08,1.11-2.62,1.67-4.64,1.67h-4.31v-13.15Zm4.31,11.96c1.4,0,2.46-.43,3.16-1.29.7-.86,1.05-2.22,1.05-4.08s-.36-3.2-1.07-4.09-1.77-1.33-3.17-1.33h-2.39v10.78h2.42Z"/><path class="cls-1" d="m324.14,65.8c-1.04-1.23-1.56-2.89-1.56-5s.52-3.75,1.56-4.98c1.04-1.23,2.5-1.85,4.38-1.85s3.34.62,4.4,1.85c1.06,1.24,1.59,2.9,1.59,4.98s-.53,3.77-1.59,5-2.53,1.84-4.4,1.84-3.33-.62-4.38-1.84Zm7.3-.76c.67-.96,1-2.37,1-4.23s-.34-3.22-1.01-4.21c-.68-.98-1.64-1.47-2.91-1.47s-2.23.49-2.89,1.47c-.67.98-1,2.38-1,4.21s.33,3.27.98,4.23c.66.97,1.63,1.45,2.91,1.45s2.25-.48,2.92-1.45Z"/><path class="cls-1" d="m348.37,67.38l.08-13.15h2.34l4.6,10.83h.03l4.55-10.83h2.23l.08,13.15h-1.87l-.08-10.86-4.5,10.86h-1.55l-4.5-10.86-.03,10.86h-1.39Z"/></g><g><rect class="cls-1" x="124.8" y="60.11" width="68.63" height="1.4"/><rect class="cls-1" x="382.87" y="60.11" width="68.63" height="1.4"/></g></g></g></svg>