<svg width="364" height="96" viewBox="0 0 364 96" fill="none" xmlns="http://www.w3.org/2000/svg">
<path d="M47.2779 70.5632C40.4638 70.1417 35.3071 64.3809 35.7368 57.6967C36.1052 52.1967 40.1773 47.6402 45.6818 46.5764C47.0528 46.3355 48.035 45.1914 48.0555 43.8264V32.7262C48.0555 31.7828 47.2779 31 46.3161 31C46.2752 31 46.2343 31 46.2138 31C30.7439 32.0036 19.0391 45.1111 20.0623 60.286C21.0854 75.461 34.4477 86.9425 49.9176 85.9389C63.5459 85.0557 74.5549 74.6781 75.9873 61.3499C76.1305 59.9046 75.046 58.62 73.5522 58.4795C73.4704 58.4795 73.3885 58.4795 73.3067 58.4795H62.8501C61.561 58.4795 60.456 59.3828 60.2104 60.6473C59.1054 66.6892 53.5395 70.9647 47.2779 70.5632Z" fill="white"/>
<path d="M73.375 31H62.625C61.1753 31 60 32.1018 60 33.4609V43.5391C60 44.8982 61.1753 46 62.625 46H73.375C74.8247 46 76 44.8982 76 43.5391V33.4609C76 32.1018 74.8247 31 73.375 31Z" fill="#22C68A"/>
<path d="M107.691 49.923V57.9643H117.782V62.7045H107.691V71.0542H119V76H102V45H119V49.923H107.691Z" fill="white"/>
<path d="M122.833 42.9238C124.113 41.6921 125.895 41.6921 127.175 42.9238C127.721 43.5284 128.025 44.4018 127.998 45.3199C128.016 46.2157 127.712 47.0779 127.175 47.6713C125.895 48.9142 124.113 48.9142 122.833 47.6713C122.287 47.0779 121.983 46.2157 122.001 45.3199C121.983 44.413 122.278 43.5284 122.833 42.9238ZM127.408 52.1614V76H122.565V52.1614H127.408Z" fill="white"/>
<path d="M158.998 71.5463C158.276 72.9372 157.233 74.0522 155.995 74.7763C154.493 75.6384 152.826 76.0522 151.158 75.9947C149.432 76.0292 147.726 75.6499 146.137 74.8683C144.732 74.1786 143.504 73.0521 142.597 71.6153C141.7 70.167 141.173 68.4543 141.076 66.6611H146.702C146.8 67.8566 147.258 68.983 147.989 69.8222C148.789 70.6957 149.852 71.144 150.934 71.0866C151.86 71.1555 152.777 70.7877 153.469 70.052C154.064 69.3394 154.376 68.3738 154.347 67.3738C154.376 66.4887 154.132 65.6266 153.645 64.9599C153.147 64.3048 152.533 63.7875 151.841 63.4427C151.119 63.0633 150.115 62.615 148.847 62.1093C147.463 61.592 146.107 60.9483 144.791 60.1897C143.718 59.5345 142.802 58.5919 142.109 57.431C141.329 56.0287 140.939 54.3734 141.008 52.6952C140.92 50.2469 141.827 47.8905 143.455 46.3502C145.327 44.7065 147.628 43.8904 149.959 44.0168C152.358 43.8674 154.727 44.718 156.648 46.4077C158.296 47.971 159.32 50.2814 159.476 52.7757H153.771C153.645 51.7182 153.225 50.7526 152.572 50.017C151.841 49.2583 150.885 48.8675 149.91 48.9365C149.052 48.8905 148.213 49.2124 147.55 49.8446C146.439 51.1894 146.351 53.2929 147.346 54.7528C147.833 55.385 148.428 55.8907 149.091 56.2356C150.047 56.7298 151.022 57.1551 152.006 57.5229C153.42 58.0862 154.805 58.7529 156.151 59.5115C157.243 60.1552 158.169 61.1208 158.871 62.2932C159.671 63.73 160.061 65.4312 159.992 67.1554C159.992 68.6957 159.651 70.213 158.978 71.5463H158.998Z" fill="white"/>
<path d="M179.632 52.493C181.282 53.4768 182.641 54.987 183.557 56.8289C184.544 58.8652 185.047 61.1647 184.997 63.4986C185.047 65.821 184.544 68.109 183.557 70.1454C182.641 71.9873 181.272 73.486 179.632 74.4813C176.089 76.5062 171.911 76.5062 168.368 74.4813C166.728 73.486 165.359 71.9873 164.443 70.1454C163.446 68.1205 162.953 65.821 163.003 63.4986C162.953 61.1647 163.456 58.8652 164.443 56.8289C165.359 54.987 166.718 53.4768 168.368 52.493C171.922 50.5023 176.079 50.5023 179.632 52.493ZM170.13 58.1903C168.992 59.6432 168.429 61.5537 168.55 63.4986C168.429 65.432 169.003 67.3425 170.13 68.7954C172.264 71.2208 175.726 71.2322 177.86 68.8069C177.86 68.8069 177.86 68.8069 177.87 68.7954C179.008 67.3425 179.581 65.432 179.461 63.4986C179.581 61.5537 179.008 59.6432 177.87 58.1903C175.736 55.7649 172.274 55.7535 170.14 58.1788C170.14 58.1788 170.14 58.1788 170.13 58.1903Z" fill="white"/>
<path d="M195 44V76H189V44H195Z" fill="white"/>
<path d="M219.99 51V75.6897H214.515V70.6914C213.979 72.315 212.989 73.6834 211.696 74.588C210.333 75.5389 208.767 76.026 207.171 75.9912C204.928 76.1071 202.746 75.075 201.231 73.1847C199.655 70.9813 198.867 68.1749 199.018 65.3337V51H204.453V64.6495C204.362 66.3194 204.837 67.9546 205.777 69.2302C206.706 70.3435 208.009 70.935 209.353 70.8538C210.767 70.935 212.141 70.2971 213.121 69.1143C214.121 67.711 214.616 65.9251 214.515 64.1276V51H220H219.99Z" fill="white"/>
<path d="M237 70.711V75.9781H233.986C231.884 76.136 229.804 75.4367 228.169 74.0269C226.832 72.7299 226.152 70.5531 226.142 67.5192V57.0867H223V51.9212H226.142V46H231.895V51.9325H236.958V57.098H231.895V67.5982C231.81 68.4666 232.043 69.3351 232.553 70.0231C233.179 70.5531 233.964 70.8013 234.75 70.711H237Z" fill="white"/>
<path d="M240.972 42.9238C242.466 41.6921 244.544 41.6921 246.037 42.9238C246.674 43.5284 247.029 44.4018 246.998 45.3199C247.019 46.2157 246.664 47.0779 246.037 47.6713C244.544 48.9142 242.466 48.9142 240.972 47.6713C240.335 47.0891 239.98 46.2157 240.001 45.3199C239.98 44.4018 240.335 43.5284 240.972 42.9238ZM246.309 52.1614V76H240.648V52.1614H246.309Z" fill="white"/>
<path d="M267.388 52.493C269.113 53.4768 270.534 54.987 271.492 56.8289C272.523 58.8652 273.049 61.1647 272.996 63.4986C273.049 65.821 272.533 68.109 271.492 70.1454C270.534 71.9873 269.103 73.486 267.388 74.4813C263.684 76.5062 259.316 76.5062 255.612 74.4813C253.897 73.486 252.466 71.9873 251.508 70.1454C250.467 68.1205 249.951 65.821 250.004 63.4986C249.962 61.1647 250.477 58.8652 251.508 56.8289C252.466 54.987 253.887 53.4768 255.612 52.493C259.316 50.5023 263.673 50.5023 267.377 52.493H267.388ZM257.454 58.1903C256.265 59.6432 255.676 61.5537 255.802 63.4986C255.676 65.432 256.275 67.3425 257.454 68.7954C259.685 71.2208 263.305 71.2322 265.536 68.8069C265.536 68.8069 265.536 68.8069 265.546 68.7954C266.735 67.3425 267.324 65.432 267.198 63.4986C267.324 61.5652 266.725 59.6432 265.546 58.1903C263.315 55.7649 259.695 55.7535 257.464 58.1788C257.464 58.1788 257.464 58.1788 257.454 58.1903Z" fill="white"/>
<path d="M294.766 53.8087C296.343 56.0302 297.141 58.8417 296.979 61.6995V76H291.532V62.3937C291.623 60.7276 291.148 59.0962 290.209 57.8235C289.259 56.7128 287.935 56.1227 286.581 56.2037C285.176 56.1343 283.812 56.7707 282.852 57.9392C281.851 59.3392 281.346 61.121 281.457 62.9259V76H276V51.3675H281.477V56.3079C282.013 54.6881 283.003 53.3228 284.287 52.4088C285.651 51.46 287.217 50.9741 288.814 51.0088C291.068 50.8931 293.24 51.9228 294.766 53.8203V53.8087Z" fill="white"/>
<path d="M315.725 53.3022C317.344 54.8333 318.41 56.9585 318.717 59.3008H313.522C313.348 58.2154 312.846 57.2213 312.108 56.49C311.298 55.7588 310.274 55.3817 309.228 55.4388C308.439 55.3817 307.65 55.6445 307.025 56.1815C306.503 56.6843 306.205 57.427 306.236 58.2039C306.205 58.8324 306.441 59.4379 306.861 59.8378C307.322 60.272 307.865 60.6034 308.439 60.7976C309.064 61.0376 309.976 61.3118 311.155 61.6203C312.528 61.9402 313.88 62.3744 315.202 62.9114C316.237 63.3571 317.159 64.0883 317.887 65.0252C318.666 66.1679 319.055 67.5732 318.994 69.0015C319.035 70.9782 318.225 72.8635 316.811 74.0518C315.11 75.4343 313.03 76.1199 310.929 75.9828C308.511 76.1199 306.113 75.3658 304.115 73.8461C302.373 72.3722 301.256 70.1784 301 67.7561H306.318C306.41 68.8758 306.933 69.9042 307.732 70.5897C308.665 71.321 309.792 71.6752 310.929 71.6181C311.718 71.6752 312.487 71.401 313.102 70.8525C313.594 70.3383 313.86 69.6071 313.839 68.853C313.86 68.2017 313.624 67.5732 313.194 67.1391C312.723 66.682 312.179 66.3278 311.585 66.1221C310.94 65.8936 310.028 65.6194 308.849 65.2995C307.507 64.9795 306.185 64.5568 304.884 64.0426C303.869 63.6199 302.978 62.9114 302.281 61.9974C301.502 60.9005 301.113 59.5293 301.195 58.1354C301.154 56.1358 301.953 54.2277 303.367 52.9937C305.099 51.5768 307.22 50.8799 309.362 51.017C311.667 50.9027 313.932 51.7025 315.756 53.2793L315.725 53.3022Z" fill="white"/>
</svg>
