<svg width="46" height="47" viewBox="0 0 46 47" fill="none" xmlns="http://www.w3.org/2000/svg">
<path d="M27.4586 16.7641H19.8604V12.965H27.4586V16.7641ZM38.8559 9.16592V39.5587C38.8559 41.6672 37.1653 43.3578 35.0568 43.3578H12.2622C10.1537 43.3578 8.46307 41.6672 8.46307 39.5587V9.16592C8.46307 8.15834 8.86333 7.19202 9.5758 6.47955C10.2883 5.76708 11.2546 5.36682 12.2622 5.36682H35.0568C37.1653 5.36682 38.8559 7.07642 38.8559 9.16592ZM35.0568 26.2619H12.2622V39.5587H35.0568V26.2619ZM35.0568 9.16592H12.2622V22.4628H35.0568V9.16592ZM27.4586 30.061H19.8604V33.8601H27.4586V30.061Z" fill="#22C68A"/>
</svg>
